<svg width="150" height="149" viewBox="0 0 78 77" fill="none" xmlns="http://www.w3.org/2000/svg">
<circle cx="39.4299" cy="5.54102" r="1.16858" fill="white"/>
<mask id="path-2-inside-1_52_288" fill="white">
<path d="M71.2078 58.7221C67.8536 64.1833 63.1718 68.7069 57.5986 71.8716C52.0253 75.0362 45.7418 76.739 39.3333 76.8213C32.9247 76.9036 26.5996 75.3628 20.9469 72.3424C15.2942 69.3219 10.4978 64.9201 7.00437 59.5468L7.96912 58.9196C11.3567 64.1301 16.0078 68.3985 21.4892 71.3275C26.9706 74.2564 33.1041 75.7505 39.3185 75.6707C45.5329 75.5909 51.626 73.9397 57.0304 70.8709C62.4348 67.8022 66.9747 63.4156 70.2273 58.1198L71.2078 58.7221Z"/>
</mask>
<path d="M71.2078 58.7221C67.8536 64.1833 63.1718 68.7069 57.5986 71.8716C52.0253 75.0362 45.7418 76.739 39.3333 76.8213C32.9247 76.9036 26.5996 75.3628 20.9469 72.3424C15.2942 69.3219 10.4978 64.9201 7.00437 59.5468L7.96912 58.9196C11.3567 64.1301 16.0078 68.3985 21.4892 71.3275C26.9706 74.2564 33.1041 75.7505 39.3185 75.6707C45.5329 75.5909 51.626 73.9397 57.0304 70.8709C62.4348 67.8022 66.9747 63.4156 70.2273 58.1198L71.2078 58.7221Z" stroke="white" stroke-width="2" mask="url(#path-2-inside-1_52_288)"/>
<path d="M5.74136 50.5702C5.92283 50.5059 6.13116 50.4773 6.36633 50.4843C6.59729 50.4927 6.83066 50.555 7.06643 50.671C7.30221 50.787 7.52426 50.9648 7.73259 51.2045C7.94091 51.4442 8.10334 51.7287 8.21987 52.0578C8.33639 52.387 8.38821 52.7011 8.37533 53.0001C8.35449 53.5584 8.12755 53.9973 7.69451 54.3168C7.57713 54.4011 7.46146 54.4634 7.34752 54.5037C6.98035 54.6337 6.59681 54.6436 6.19689 54.5335L6.22104 54.4608C6.51933 54.512 6.78454 54.4964 7.01665 54.4143C7.30363 54.3127 7.53145 54.1513 7.70011 53.9301C7.86877 53.709 7.97172 53.4564 8.00895 53.1726C8.04619 52.8887 8.02073 52.6222 7.93259 52.3732C7.84295 52.12 7.72742 51.9211 7.58598 51.7764C7.44455 51.6318 7.29211 51.5433 7.12868 51.5109C6.96525 51.4785 6.80967 51.4885 6.66197 51.5408C6.51426 51.5931 6.38311 51.6988 6.26853 51.8581C6.14973 52.0189 6.06995 52.2229 6.02921 52.47L5.78676 53.717C5.66392 54.3494 5.35984 54.7514 4.87451 54.9232C4.43982 55.0771 4.05053 55.044 3.70663 54.8238C3.41865 54.6408 3.19772 54.3319 3.04384 53.8972C2.94524 53.6187 2.84085 53.2567 2.73067 52.8113L2.55588 52.3175L3.6348 52.0852L3.65721 52.1485C3.42509 52.2307 3.26941 52.3879 3.19016 52.6202C3.11091 52.8524 3.12133 53.1099 3.22143 53.3927C3.32152 53.6754 3.44699 53.8756 3.59784 53.9932C3.74868 54.1107 3.90653 54.1475 4.07139 54.1034C4.18559 54.0772 4.26798 54.0148 4.31855 53.9161C4.36367 53.8289 4.39401 53.747 4.40958 53.6702C4.42094 53.595 4.43242 53.5268 4.44404 53.4657C4.45565 53.4046 4.46194 53.362 4.46291 53.3379L4.72122 51.9143C4.77481 51.5962 4.88519 51.3244 5.05236 51.099C5.2416 50.842 5.47126 50.6658 5.74136 50.5702Z" fill="white"/>
<path d="M4.24876 49.7866C3.75104 49.8772 3.30076 49.8408 2.89792 49.6774C2.49507 49.5141 2.15968 49.2338 1.89176 48.8367C1.62303 48.4351 1.43137 47.9193 1.31678 47.2895C1.20219 46.6596 1.20293 46.0884 1.319 45.5759L2.59293 45.4124L2.60375 45.4718C2.18212 45.6805 1.89865 45.9232 1.75332 46.1999C1.608 46.4766 1.56819 46.7955 1.6339 47.1567C1.72285 47.6456 1.97275 47.9938 2.38361 48.2011C2.79447 48.4085 3.32363 48.4533 3.97111 48.3355C4.61418 48.2185 5.09786 48.0008 5.42217 47.6824C5.74568 47.3597 5.87317 46.9724 5.80465 46.5208C5.7101 46.001 5.51825 45.6469 5.22913 45.4583C4.96002 45.2798 4.48831 45.1881 3.814 45.1834L3.80438 45.1305L4.97798 44.7532C5.58345 44.9798 5.96652 45.5471 6.12719 46.4553C6.29146 47.3582 6.21126 48.1054 5.88658 48.6969C5.55669 49.2847 5.01075 49.648 4.24876 49.7866Z" fill="white"/>
<path d="M1.61441 39.3923C1.77056 39.3195 1.93369 39.2825 2.1038 39.2812C2.26944 39.2799 2.41731 39.2967 2.54741 39.3315C2.67303 39.3664 2.7988 39.4214 2.92473 39.4966C3.19459 39.6602 3.36238 39.9432 3.42811 40.3456C3.47603 40.1707 3.56214 40.0133 3.68644 39.8736C3.81067 39.7249 3.98421 39.5848 4.20706 39.4533C4.77754 39.1132 5.14492 38.853 5.30921 38.6726C5.43354 38.5374 5.49716 38.3668 5.50008 38.1608L5.56723 38.1603L5.57359 38.9997C5.578 39.5817 5.51624 39.9985 5.38832 40.2502C5.20749 40.6097 4.89381 40.8673 4.44729 41.0229C4.31777 41.0642 4.1815 41.101 4.03848 41.1334C3.89543 41.1614 3.79265 41.1868 3.73014 41.2096C3.66313 41.228 3.60286 41.2509 3.54934 41.2782C3.49135 41.3055 3.4468 41.3349 3.4157 41.3665C3.36239 41.4206 3.32257 41.4836 3.29626 41.5554L3.22911 41.5559L3.22829 41.4485C3.22632 41.1888 3.10621 40.995 2.86796 40.867C2.7421 40.8008 2.60749 40.7615 2.46414 40.7491C2.31627 40.7324 2.22443 40.7241 2.18861 40.7244C2.1528 40.7246 2.13042 40.7248 2.12146 40.7249C1.53077 40.7607 1.23724 41.0181 1.24087 41.4971L1.24311 41.7926L5.10431 41.7633C5.2207 41.7624 5.32111 41.7191 5.40552 41.6334C5.48546 41.5478 5.52498 41.4467 5.5241 41.3303L5.52349 41.2498L5.59064 41.2493L5.60892 43.66L5.54177 43.6605L5.5411 43.5732C5.54022 43.4568 5.49918 43.3586 5.41799 43.2786C5.33676 43.1942 5.23794 43.1502 5.12151 43.1466L1.39461 43.1748C1.229 43.1806 1.10644 43.2531 1.02691 43.3925C0.991602 43.4599 0.974238 43.5317 0.974815 43.6078L0.975476 43.6951L0.908325 43.6956L0.888423 41.07C0.881771 40.1926 1.12377 39.6333 1.61441 39.3923Z" fill="white"/>
<path d="M1.38047 34.2909C1.48135 33.7223 1.66293 33.2498 1.9252 32.8735C2.18825 32.4928 2.52226 32.2246 2.92723 32.0691C3.32779 31.9129 3.77713 31.8789 4.27524 31.9673C5.02902 32.101 5.57629 32.4504 5.91707 33.0156C6.25344 33.5799 6.34578 34.2897 6.19407 35.1449C6.04236 36 5.71152 36.6347 5.20154 37.049C4.68794 37.458 4.05425 37.5956 3.30047 37.4619C2.5467 37.3282 2.00123 36.9814 1.66408 36.4214C1.3233 35.8562 1.22876 35.1461 1.38047 34.2909ZM5.14692 35.9344C5.55345 35.7701 5.7923 35.4874 5.86346 35.0862C5.93541 34.6807 5.80839 34.3331 5.4824 34.0433C5.1572 33.7492 4.6684 33.5443 4.01601 33.4285C3.36361 33.3128 2.83415 33.3371 2.42762 33.5014C2.02187 33.6613 1.78302 33.944 1.71108 34.3496C1.63991 34.7507 1.76694 35.0983 2.09214 35.3925C2.41813 35.6822 2.90732 35.8849 3.55971 36.0006C4.2121 36.1164 4.74117 36.0943 5.14692 35.9344Z" fill="white"/>
<path d="M6.84914 31.4204C6.88854 31.3108 6.88396 31.2045 6.8354 31.1014C6.78415 30.9926 6.70452 30.9164 6.5965 30.8728L3.09577 29.6136C2.93838 29.5618 2.79829 29.5875 2.67549 29.6908C2.61906 29.7419 2.57797 29.8033 2.55221 29.8749L2.52266 29.957L2.45947 29.9343L3.2754 27.6658L3.33859 27.6885L3.30904 27.7706C3.26965 27.8802 3.27558 27.9894 3.32683 28.0982C3.37387 28.2055 3.45215 28.2788 3.56168 28.3182L7.20144 29.6274L7.48099 28.8501C7.5916 28.5426 7.58823 28.2345 7.47087 27.9259C7.35351 27.6172 7.13322 27.3501 6.80999 27.1244L6.83271 27.0612L8.21236 27.8286L6.88279 31.5252L6.8196 31.5025L6.84914 31.4204Z" fill="white"/>
<path d="M8.57288 26.8468C8.62774 26.7442 8.63862 26.6383 8.60552 26.5293C8.57058 26.4142 8.50283 26.3272 8.40228 26.2684L5.12099 24.5152C4.97279 24.4411 4.83044 24.4462 4.69397 24.5307C4.63073 24.573 4.58118 24.6278 4.54532 24.6949L4.50418 24.7719L4.44495 24.7402L5.58105 22.6139L5.64028 22.6456L5.59914 22.7226C5.54428 22.8252 5.53433 22.9341 5.56926 23.0492C5.60025 23.1622 5.66708 23.2461 5.76974 23.301L9.18133 25.1238L9.57058 24.3953C9.72459 24.1071 9.7659 23.8017 9.69452 23.4794C9.62313 23.157 9.44388 22.8607 9.15678 22.5905L9.18842 22.5313L10.4423 23.4906L8.59097 26.9555L8.53174 26.9238L8.57288 26.8468Z" fill="white"/>
<path d="M13.9888 18.7745L12.3061 20.6839L12.2557 20.6395L12.3134 20.574C12.3904 20.4867 12.4253 20.3862 12.4181 20.2724C12.4105 20.1524 12.3646 20.0522 12.2802 19.9719L9.40338 17.4367C9.12954 17.822 8.99331 18.1763 8.9947 18.4998C8.99625 18.7756 9.06307 19.0553 9.19516 19.3388L9.13061 19.3714C8.82706 18.9845 8.70743 18.5718 8.77172 18.1332C8.83898 17.6912 9.05908 17.2586 9.43203 16.8354L10.4621 15.6666C11.0185 15.0351 11.6083 14.6807 12.2315 14.6033C12.8543 14.5196 13.4427 14.7219 13.9969 15.2103C14.5511 15.6987 14.8275 16.2585 14.8262 16.8898C14.8214 17.5181 14.5423 18.1464 13.9888 18.7745ZM13.3062 19.0412L13.6481 18.6532C13.9234 18.3409 14.0068 17.9788 13.8983 17.5669C13.7865 17.1521 13.4938 16.736 13.0202 16.3187C12.5466 15.9013 12.0987 15.6648 11.6765 15.6089C11.2509 15.5502 10.9005 15.677 10.6252 15.9893L10.2934 16.3861L13.3062 19.0412Z" fill="white"/>
<path d="M15.6846 10.6491C16.1419 10.2963 16.5941 10.0689 17.0413 9.96694C17.4921 9.86226 17.9196 9.88864 18.3238 10.0461C18.7253 10.2 19.0805 10.4772 19.3896 10.8777C19.8573 11.4838 20.027 12.1105 19.8989 12.7579C19.7681 13.4017 19.3588 13.9889 18.6712 14.5195C17.9836 15.0501 17.3118 15.297 16.6558 15.2604C16.0007 15.2174 15.4392 14.8929 14.9716 14.2868C14.5039 13.6807 14.3337 13.0571 14.461 12.416C14.5892 11.7686 14.997 11.1797 15.6846 10.6491ZM17.3653 14.3991C17.7766 14.551 18.1436 14.5026 18.4661 14.2537C18.7922 14.0021 18.9321 13.6594 18.8859 13.2258C18.8432 12.7894 18.6194 12.3089 18.2146 11.7843C17.8099 11.2598 17.4018 10.9215 16.9905 10.7695C16.5828 10.6148 16.2158 10.6633 15.8898 10.9149C15.5672 11.1638 15.4273 11.5064 15.47 11.9428C15.5162 12.3765 15.7417 12.8556 16.1465 13.3802C16.5513 13.9047 16.9576 14.2444 17.3653 14.3991Z" fill="white"/>
<path d="M25.4093 5.19196L25.361 5.21564C25.2204 5.28472 25.1175 5.39511 25.0523 5.54681C25.0157 5.63465 25.002 5.72365 25.0114 5.81381L25.5972 9.59607C25.605 9.63217 25.6156 9.67929 25.6292 9.73745L25.6788 9.94503C25.7102 10.0394 25.7397 10.1146 25.7673 10.1709C25.7949 10.2272 25.8196 10.2724 25.8414 10.3066L25.7812 10.3362L23.101 8.39806L23.1078 10.8187C23.1139 11.0951 23.1692 11.3447 23.2737 11.5677L23.2194 11.5944L19.7916 8.37755C19.6781 8.28865 19.5593 8.23976 19.4352 8.23087C19.3152 8.22 19.2049 8.23924 19.1044 8.28858L19.0562 8.31226L19.0266 8.25199L21.1905 7.18919L21.2201 7.24947L21.1659 7.27611C21.0453 7.33532 20.9926 7.43105 21.0077 7.5633C21.0155 7.58938 21.0273 7.6185 21.0431 7.65065C21.0589 7.68279 21.0866 7.71903 21.1264 7.75935L22.5886 9.07616L22.5656 6.39409L22.6228 6.37347L24.9118 8.00248L24.5621 6.0719C24.5484 6.02375 24.5337 5.98361 24.5179 5.95146C24.5001 5.91529 24.4754 5.88008 24.4436 5.84582C24.4118 5.81155 24.3689 5.79023 24.3149 5.78183C24.2609 5.77344 24.2058 5.78306 24.1495 5.81069L24.0952 5.83734L24.0656 5.77706L25.3797 5.13168L25.4093 5.19196Z" fill="white"/>
<path d="M31.9744 3.39693C31.8661 3.4254 31.7833 3.48886 31.7259 3.58729C31.6673 3.68139 31.6501 3.78313 31.6742 3.89251L32.5558 7.24361C32.64 7.564 32.7266 7.8051 32.8154 7.96689L32.8588 8.05269L32.8004 8.06806L28.9618 6.11977L29.5444 8.33435C29.5854 8.49022 29.6827 8.5873 29.8362 8.62559C29.906 8.64429 29.9755 8.64452 30.0447 8.6263L30.1681 8.59384L30.1852 8.65878L27.8083 9.28405L27.7912 9.2191L27.9146 9.18665C28.0228 9.15817 28.1062 9.09688 28.1648 9.00278C28.2222 8.90435 28.2361 8.79885 28.2065 8.68628L27.3199 5.31569C27.2402 5.01262 27.1553 4.77802 27.0653 4.6119L27.0219 4.5261L27.0869 4.50902L30.9254 6.45731L30.3446 4.24922C30.3106 4.13779 30.245 4.05553 30.1477 4.00242C30.0493 3.94499 29.946 3.93051 29.8377 3.95899L29.7143 3.99145L29.6972 3.9265L32.0742 3.30124L32.0913 3.36618L31.9744 3.39693Z" fill="white"/>
<path d="M49.2097 7.75495C49.1647 7.94213 49.0753 8.13244 48.9413 8.32589C48.8084 8.51497 48.6292 8.6768 48.4035 8.81138C48.1778 8.94595 47.9077 9.03533 47.5932 9.07952C47.2787 9.1237 46.9517 9.10503 46.6122 9.02349C46.2726 8.94195 45.981 8.81436 45.7372 8.64072C45.2803 8.31921 45.0358 7.88986 45.0037 7.35266C44.9969 7.20831 45.0076 7.07736 45.0359 6.95983C45.1268 6.58111 45.3274 6.25403 45.6375 5.9786L45.6853 6.03842C45.48 6.26076 45.3486 6.49164 45.2911 6.73106C45.22 7.02707 45.2313 7.30603 45.3249 7.56793C45.4186 7.82984 45.5743 8.0537 45.7921 8.23953C46.0099 8.42536 46.2472 8.54911 46.5041 8.61078C46.7653 8.67351 46.995 8.68494 47.1934 8.64509C47.3917 8.60524 47.549 8.5256 47.6651 8.40616C47.7813 8.28672 47.8577 8.15083 47.8942 7.99847C47.9308 7.84611 47.9135 7.6785 47.8423 7.49566C47.7722 7.30846 47.6446 7.13048 47.4595 6.96172L46.5457 6.07928C46.0822 5.63188 45.9106 5.15787 46.0308 4.65726C46.1385 4.20889 46.3783 3.90045 46.7503 3.73194C47.0606 3.59007 47.4399 3.57297 47.8883 3.68064C48.1756 3.74963 48.536 3.85921 48.9696 4.00937L49.4789 4.13168L49.0862 5.16309L49.0209 5.14741C49.0784 4.90798 49.0313 4.69179 48.8797 4.49884C48.728 4.30588 48.5064 4.17438 48.2147 4.10434C47.9231 4.0343 47.6869 4.03053 47.5061 4.09302C47.3253 4.1555 47.2086 4.26789 47.1558 4.43017C47.1156 4.54022 47.123 4.6433 47.1782 4.73943C47.2268 4.82476 47.279 4.89486 47.3349 4.94971C47.3918 5.00022 47.4428 5.04698 47.4877 5.09C47.5326 5.13301 47.5649 5.16149 47.5846 5.17542L48.6378 6.16732C48.8755 6.38554 49.0433 6.62612 49.1413 6.88907C49.2538 7.18772 49.2766 7.47635 49.2097 7.75495Z" fill="white"/>
<path d="M50.6796 6.92992C50.8747 6.46317 51.1505 6.10533 51.5068 5.85642C51.8632 5.6075 52.2809 5.47884 52.7599 5.47043C53.2431 5.46376 53.78 5.58387 54.3707 5.83078C54.9613 6.07769 55.44 6.38938 55.8067 6.76586L55.25 7.92336L55.1943 7.90005C55.2489 7.43279 55.1997 7.06288 55.0468 6.7903C54.8939 6.51772 54.648 6.31064 54.3093 6.16906C53.8508 5.9774 53.4228 5.9974 53.0251 6.22905C52.6274 6.46071 52.3017 6.88013 52.0479 7.48731C51.7958 8.09037 51.7149 8.61459 51.8053 9.05997C51.8999 9.50708 52.1552 9.82489 52.5713 10.0134C53.0587 10.2171 53.4602 10.2491 53.7758 10.1093C54.0722 9.98085 54.4059 9.63514 54.7771 9.07217L54.8267 9.09289L54.504 10.2827C53.9842 10.6671 53.2998 10.6794 52.4506 10.3196C51.6039 9.96562 51.0209 9.49143 50.7016 8.89702C50.3882 8.3002 50.3809 7.6445 50.6796 6.92992Z" fill="white"/>
<path d="M60.8321 10.3811C60.8081 10.5517 60.7503 10.7087 60.6588 10.8521C60.5696 10.9917 60.475 11.1066 60.3749 11.1967C60.2773 11.2831 60.1627 11.3586 60.0311 11.4233C59.7469 11.5606 59.4181 11.5472 59.0448 11.3831C59.1655 11.5186 59.2505 11.6765 59.3 11.8569C59.3571 12.042 59.3801 12.2639 59.369 12.5224C59.3436 13.1861 59.3617 13.6359 59.4235 13.8719C59.4692 14.0498 59.5777 14.1961 59.7488 14.3107L59.7127 14.3673L59.0052 13.9155C58.5147 13.6023 58.1988 13.3235 58.0573 13.0791C57.8543 12.7317 57.8091 12.3283 57.9218 11.8691C57.9577 11.738 58.001 11.6036 58.0517 11.466C58.1061 11.3308 58.1408 11.2308 58.1557 11.1659C58.1767 11.0997 58.1904 11.0367 58.1967 10.977C58.2054 10.9135 58.2049 10.8601 58.1954 10.8168C58.179 10.7426 58.1479 10.6749 58.102 10.6137L58.1381 10.5571L58.2287 10.6149C58.4475 10.7547 58.6755 10.7595 58.9126 10.6294C59.0367 10.5599 59.1429 10.4684 59.2313 10.3549C59.326 10.24 59.3829 10.1675 59.4022 10.1373C59.4214 10.1071 59.4335 10.0883 59.4383 10.0807C59.73 9.56578 59.6739 9.17941 59.2702 8.92159L59.0212 8.76256L56.9429 12.0169C56.8803 12.115 56.8619 12.2228 56.8878 12.3403C56.9161 12.4539 56.9794 12.5421 57.0775 12.6048L57.1454 12.6481L57.1092 12.7047L55.0774 11.4072L55.1135 11.3506L55.1871 11.3976C55.2852 11.4602 55.3899 11.4793 55.5012 11.4547C55.6163 11.4326 55.707 11.3737 55.7734 11.278L57.7794 8.13687C57.8648 7.99485 57.8706 7.85254 57.7971 7.70992C57.7597 7.64359 57.709 7.58995 57.6449 7.54899L57.5713 7.502L57.6074 7.4454L59.8204 8.8586C60.5599 9.33087 60.8971 9.83838 60.8321 10.3811Z" fill="white"/>
<path d="M65.2378 12.9631C65.6598 13.3574 65.9572 13.767 66.13 14.1919C66.3061 14.6198 66.349 15.046 66.2589 15.4703C66.1718 15.8914 65.9556 16.2867 65.6102 16.6564C65.0876 17.2157 64.4964 17.4844 63.8369 17.4625C63.1804 17.4372 62.5348 17.1281 61.9002 16.5352C61.2656 15.9422 60.9134 15.3191 60.8438 14.6658C60.7804 14.0123 61.0101 13.4059 61.5327 12.8465C62.0554 12.2871 62.6433 12.0185 63.2966 12.0407C63.9561 12.0627 64.6032 12.3701 65.2378 12.9631ZM61.8083 15.227C61.7247 15.6574 61.8317 16.0117 62.1294 16.2898C62.4304 16.571 62.7911 16.6538 63.2116 16.5382C63.6354 16.4256 64.0735 16.1273 64.5258 15.6431C64.9782 15.159 65.2462 14.7017 65.3297 14.2713C65.4166 13.8439 65.3096 13.4896 65.0086 13.2084C64.7109 12.9303 64.3502 12.8475 63.9264 12.9601C63.5059 13.0757 63.0695 13.3756 62.6171 13.8597C62.1647 14.3438 61.8951 14.7996 61.8083 15.227Z" fill="white"/>
<path d="M64.6673 19.113C64.7377 19.2056 64.8293 19.2597 64.9422 19.2751C65.0614 19.2914 65.1687 19.2661 65.2641 19.1993L68.2266 16.9489C68.3558 16.8452 68.4105 16.7136 68.3907 16.5544C68.3786 16.4792 68.3496 16.4114 68.3035 16.3508L68.2507 16.2813L68.3042 16.2406L69.7625 18.1604L69.709 18.201L69.6562 18.1315C69.5858 18.0388 69.491 17.9843 69.3718 17.968C69.2562 17.949 69.152 17.9747 69.0593 18.0451L65.9792 20.3849L66.4788 21.0426C66.6765 21.3029 66.9367 21.4678 67.2595 21.5375C67.5823 21.6071 67.9263 21.5678 68.2916 21.4197L68.3322 21.4731L66.9373 22.2123L64.561 19.0841L64.6144 19.0434L64.6673 19.113Z" fill="white"/>
<path d="M67.5643 23.0493C67.6205 23.1513 67.7033 23.218 67.8128 23.2496C67.9284 23.283 68.0382 23.2736 68.1423 23.2213L71.3997 21.424C71.5425 21.3401 71.6157 21.2179 71.6193 21.0574C71.6182 20.9813 71.5992 20.91 71.5625 20.8433L71.5203 20.7669L71.5791 20.7345L72.7437 22.8453L72.6849 22.8777L72.6428 22.8013C72.5865 22.6994 72.5006 22.6317 72.3851 22.5983C72.2734 22.5628 72.1666 22.5731 72.0647 22.6294L68.678 24.498L69.077 25.2212C69.2349 25.5073 69.4685 25.7083 69.7777 25.824C70.087 25.9397 70.4331 25.9507 70.816 25.857L70.8485 25.9158L69.3611 26.445L67.4633 23.0053L67.5221 22.9729L67.5643 23.0493Z" fill="white"/>
<path d="M71.3852 31.9879L70.7001 29.5367L70.7648 29.5186L70.7883 29.6027C70.8196 29.7148 70.8849 29.7988 70.9842 29.8547C71.089 29.9137 71.1981 29.9298 71.3114 29.9027L75.0043 28.8706C74.8304 28.4311 74.6074 28.1239 74.3353 27.9489C74.1031 27.8 73.8322 27.7037 73.5225 27.6601L73.5303 27.5882C74.02 27.5443 74.4313 27.6687 74.7642 27.9615C75.0982 28.2586 75.3412 28.6788 75.493 29.2221L75.9124 30.7225C76.139 31.5331 76.115 32.2208 75.8406 32.7856C75.5716 33.3535 75.0815 33.7369 74.37 33.9357C73.6586 34.1345 73.0385 34.0615 72.5098 33.7165C71.9854 33.3704 71.6105 32.7941 71.3852 31.9879ZM71.5332 31.2701L71.6724 31.7681C71.7845 32.1691 72.0428 32.4363 72.4472 32.5696C72.856 32.7017 73.3644 32.6828 73.9724 32.5129C74.5803 32.3429 75.0226 32.0961 75.2994 31.7724C75.5805 31.4475 75.665 31.0845 75.5529 30.6836L75.4008 30.1892L71.5332 31.2701Z" fill="white"/>
<path d="M77.2764 37.835C77.3233 38.4106 77.2677 38.9137 77.1097 39.3443C76.952 39.7794 76.697 40.1236 76.3449 40.3769C75.9971 40.6298 75.5712 40.7768 75.067 40.8179C74.3039 40.88 73.6858 40.6811 73.2127 40.2211C72.7439 39.7607 72.4743 39.0977 72.4038 38.232C72.3332 37.3664 72.492 36.6685 72.88 36.1383C73.2728 35.6122 73.8507 35.318 74.6137 35.2559C75.3768 35.1937 75.9925 35.3906 76.4608 35.8465C76.934 36.3065 77.2058 36.9693 77.2764 37.835ZM73.216 37.2024C72.8645 37.4646 72.7053 37.7987 72.7384 38.2048C72.7719 38.6153 72.9831 38.9192 73.372 39.1166C73.7612 39.3185 74.286 39.3925 74.9464 39.3387C75.6068 39.2849 76.1127 39.1269 76.4642 38.8646C76.816 38.6069 76.9752 38.2728 76.9417 37.8623C76.9086 37.4562 76.6975 37.1523 76.3082 36.9504C75.9193 36.753 75.3947 36.6812 74.7343 36.735C74.0739 36.7889 73.5678 36.9446 73.216 37.2024Z" fill="white"/>
<path d="M76.5572 48.9633L76.5636 48.9099C76.5822 48.7544 76.5457 48.608 76.4539 48.4707C76.4002 48.3921 76.333 48.3322 76.2523 48.291L72.7611 46.7225C72.7266 46.7093 72.6813 46.6926 72.6251 46.6723L72.424 46.6009C72.3278 46.5758 72.2486 46.5596 72.1864 46.5521C72.1241 46.5446 72.0727 46.5407 72.0322 46.5404L72.0402 46.4737L75.1253 45.2813L73.0914 43.9688C72.8563 43.8234 72.6168 43.7338 72.3728 43.7L72.38 43.64L76.9448 42.5169C77.0812 42.4701 77.1869 42.3971 77.2619 42.2979C77.3364 42.2031 77.3803 42.1002 77.3936 41.989L77.4 41.9357L77.4667 41.9437L77.1796 44.3373L77.1129 44.3293L77.1201 44.2693C77.1361 44.136 77.0846 44.0396 76.9654 43.9802C76.9393 43.9726 76.9084 43.9666 76.8729 43.9624C76.8373 43.9581 76.7918 43.9617 76.7363 43.9731L74.8356 44.4823L77.0976 45.9237L77.0837 45.9829L74.4709 47.0155L76.2805 47.7736C76.3284 47.7883 76.3701 47.7978 76.4056 47.8021C76.4456 47.8069 76.4887 47.8053 76.5347 47.7973C76.5808 47.7893 76.622 47.7649 76.6585 47.7242C76.6949 47.6835 76.7169 47.632 76.7243 47.5698L76.7315 47.5098L76.7982 47.5178L76.6239 48.9713L76.5572 48.9633Z" fill="white"/>
<path d="M74.4873 55.4469C74.5224 55.3407 74.5143 55.2366 74.463 55.1349C74.4159 55.0345 74.34 54.9646 74.2351 54.9253L70.9445 53.8397C70.6299 53.7359 70.3805 53.6772 70.1964 53.6636L70.1008 53.6533L70.1198 53.5959L73.8443 51.4375L71.6696 50.72C71.5166 50.6695 71.3822 50.6983 71.2664 50.8062C71.2128 50.8545 71.1747 50.9127 71.1523 50.9807L71.1123 51.1019L71.0485 51.0808L71.8186 48.7468L71.8824 48.7678L71.8424 48.889C71.8073 48.9952 71.8133 49.0986 71.8603 49.1989C71.9116 49.3007 71.9925 49.3698 72.1031 49.4063L75.4128 50.4983C75.7104 50.5965 75.9534 50.6531 76.1417 50.668L76.2373 50.6784L76.2163 50.7421L72.4918 52.9005L74.66 53.6159C74.772 53.6481 74.8767 53.6379 74.9742 53.5852C75.076 53.5339 75.1444 53.4551 75.1795 53.3488L75.2195 53.2277L75.2832 53.2487L74.5132 55.5828L74.4494 55.5617L74.4873 55.4469Z" fill="white"/>
</svg>
