<svg width="190" height="190" viewBox="0 0 104 104" fill="none" xmlns="http://www.w3.org/2000/svg">
<g filter="url(#filter0_b_664_4)">
<path d="M48.8208 2.61899C50.6673 1.09784 53.3327 1.09784 55.1792 2.61899L59.3985 6.09493C60.6568 7.13146 62.3413 7.48952 63.9124 7.05437L69.1808 5.59512C71.4863 4.95653 73.9212 6.04061 74.9894 8.18128L77.4302 13.0729C78.158 14.5316 79.5513 15.5438 81.1635 15.7853L86.57 16.5951C88.936 16.9495 90.7194 18.9302 90.8245 21.3202L91.0647 26.7817C91.1363 28.4103 91.9974 29.9018 93.372 30.7781L97.9817 33.7169C99.999 35.0029 100.823 37.5378 99.9465 39.764L97.9446 44.851C97.3476 46.3679 97.5276 48.0807 98.427 49.4404L101.443 54C102.763 55.9954 102.484 58.6461 100.778 60.3235L96.8802 64.1564C95.7179 65.2994 95.1857 66.9373 95.4542 68.5452L96.3548 73.9373C96.7489 76.297 95.4162 78.6052 93.1756 79.4437L88.0557 81.3599C86.5289 81.9313 85.3766 83.2111 84.9679 84.7892L83.5974 90.0814C82.9977 92.3974 80.8414 93.964 78.4534 93.8187L72.9968 93.4867C71.3696 93.3877 69.7963 94.0882 68.7811 95.3637L65.3766 99.6409C63.8867 101.513 61.2796 102.067 59.1572 100.963L54.3073 98.4402C52.8611 97.6879 51.1389 97.6879 49.6927 98.4402L44.8428 100.963C42.7204 102.067 40.1133 101.513 38.6234 99.6409L35.2189 95.3637C34.2037 94.0882 32.6304 93.3877 31.0032 93.4867L25.5466 93.8187C23.1586 93.964 21.0023 92.3974 20.4026 90.0814L19.0321 84.7892C18.6234 83.2111 17.4711 81.9313 15.9443 81.3599L10.8244 79.4437C8.58377 78.6052 7.25111 76.297 7.64521 73.9373L8.54576 68.5452C8.81431 66.9373 8.28213 65.2994 7.11976 64.1564L3.22182 60.3235C1.51599 58.6461 1.23739 55.9954 2.55719 54L5.57304 49.4404C6.47237 48.0807 6.65239 46.3679 6.0554 44.851L4.05346 39.764C3.17736 37.5378 4.00099 35.0029 6.01828 33.7169L10.628 30.7781C12.0026 29.9018 12.8637 28.4103 12.9353 26.7817L13.1755 21.3202C13.2806 18.9302 15.064 16.9495 17.43 16.5951L22.8365 15.7853C24.4487 15.5438 25.842 14.5316 26.5698 13.0729L29.0106 8.18129C30.0788 6.04061 32.5137 4.95653 34.8192 5.59512L40.0876 7.05437C41.6587 7.48952 43.3432 7.13146 44.6014 6.09493L48.8208 2.61899Z" fill="url(#paint0_linear_664_4)" fill-opacity="0.23"/>
<path d="M54.8612 3.00491L59.0806 6.48084C60.4647 7.62102 62.3177 8.01489 64.0458 7.53623L69.3142 6.07698C71.3892 5.50224 73.5806 6.47792 74.542 8.40453L76.9828 13.2961C77.7834 14.9007 79.316 16.0142 81.0895 16.2798L86.4959 17.0896C88.6253 17.4085 90.2304 19.1911 90.325 21.3422L90.5652 26.8037C90.644 28.5952 91.5912 30.2357 93.1033 31.1997L97.7129 34.1385C99.5285 35.2959 100.27 37.5773 99.4813 39.5809L97.4793 44.6679C96.8226 46.3365 97.0207 48.2206 98.0099 49.7162L101.026 54.2758C102.214 56.0717 101.963 58.4573 100.428 59.9669L96.5297 63.7999C95.2511 65.0572 94.6657 66.8588 94.9611 68.6276L95.8616 74.0196C96.2163 76.1434 95.0169 78.2208 93.0004 78.9755L87.8804 80.8916C86.201 81.5201 84.9334 82.9279 84.4838 84.6639L83.1134 89.9561C82.5736 92.0405 80.633 93.4504 78.4838 93.3197L73.0271 92.9877C71.2372 92.8788 69.5066 93.6493 68.3899 95.0523L64.9854 99.3296C63.6445 101.014 61.2981 101.513 59.3879 100.519L54.5381 97.9966C52.9472 97.1691 51.0528 97.1691 49.4619 97.9966L44.6121 100.519C42.7019 101.513 40.3555 101.014 39.0146 99.3296L35.6101 95.0523C34.4934 93.6493 32.7628 92.8788 30.9729 92.9877L25.5162 93.3197C23.367 93.4504 21.4264 92.0405 20.8866 89.9561L19.5162 84.6639C19.0666 82.9279 17.799 81.5201 16.1196 80.8916L10.9996 78.9755C8.98308 78.2208 7.78369 76.1434 8.13838 74.0196L9.03893 68.6276C9.33433 66.8589 8.74894 65.0572 7.47033 63.7999L3.57239 59.9669C2.03714 58.4573 1.7864 56.0717 2.97423 54.2758L5.99007 49.7162C6.97933 48.2206 7.17735 46.3365 6.52067 44.6679L4.51872 39.5809C3.73024 37.5773 4.4715 35.2959 6.28707 34.1385L10.8967 31.1997C12.4088 30.2357 13.356 28.5952 13.4348 26.8037L13.675 21.3422C13.7696 19.1911 15.3747 17.4085 17.5041 17.0896L22.9105 16.2798C24.684 16.0142 26.2166 14.9007 27.0172 13.2961L29.458 8.40453C30.4194 6.47792 32.6108 5.50224 34.6858 6.07698L39.9542 7.53623C41.6823 8.01489 43.5353 7.62103 44.9194 6.48084L49.1388 3.00491C50.8006 1.63587 53.1994 1.63587 54.8612 3.00491Z" stroke="url(#paint1_linear_664_4)"/>
</g>
<defs>
<filter id="filter0_b_664_4" x="-18.2726" y="-18.5219" width="140.545" height="140.049" filterUnits="userSpaceOnUse" color-interpolation-filters="sRGB">
<feFlood flood-opacity="0" result="BackgroundImageFix"/>
<feGaussianBlur in="BackgroundImageFix" stdDeviation="10"/>
<feComposite in2="SourceAlpha" operator="in" result="effect1_backgroundBlur_664_4"/>
<feBlend mode="normal" in="SourceGraphic" in2="effect1_backgroundBlur_664_4" result="shape"/>
</filter>
<linearGradient id="paint0_linear_664_4" x1="52" y1="6.89179e-07" x2="74" y2="185" gradientUnits="userSpaceOnUse">
<stop stop-color="white"/>
<stop offset="1" stop-color="white" stop-opacity="0"/>
</linearGradient>
<linearGradient id="paint1_linear_664_4" x1="49" y1="-91" x2="52" y2="104" gradientUnits="userSpaceOnUse">
<stop stop-color="white"/>
<stop offset="1" stop-color="white" stop-opacity="0"/>
</linearGradient>
</defs>
</svg>
